<?xml version="1.0" encoding="utf-8"?>
<!-- Svg Vector Icons : http://www.onlinewebfonts.com/icon -->
<!DOCTYPE svg PUBLIC "-//W3C//DTD SVG 1.1//EN" "http://www.w3.org/Graphics/SVG/1.1/DTD/svg11.dtd">
<svg version="1.1" xmlns="http://www.w3.org/2000/svg" xmlns:xlink="http://www.w3.org/1999/xlink" x="0px" y="0px" viewBox="0 0 1000 1000" enable-background="new 0 0 1000 1000" xml:space="preserve" style="fill: #8b1b1c;">
<metadata> Svg Vector Icons : http://www.onlinewebfonts.com/icon </metadata>
<g><g transform="translate(0.000000,511.000000) scale(0.100000,-0.100000)"><path d="M5384,3273.3c-250.8-15.3-896-86.2-1187-132.1c-1045.3-160.8-2048.5-480.5-2642-840.5l-111-68.9l-13.4-122.5l-13.4-124.4l-151.2-105.3c-82.3-57.4-166.6-105.3-185.7-105.3c-21.1,0-74.7,13.4-118.7,28.7c-44,15.3-93.8,28.7-107.2,28.7c-30.6,0-319.7-425-377.1-551.4c-34.5-80.4-46-247-130.2-1954.7c-70.8-1411-99.6-1870.4-116.8-1876.2c-51.7-17.2-130.2-114.9-130.2-162.7c0-26.8,19.1-68.9,44-95.7c38.3-44,67-51.7,281.4-78.5c896-107.2,2146.1-158.9,4164-176.1c2444.8-19.2,5115.5,51.7,5249.5,139.8c91.9,57.4,76.6,204.9-23,256.5c-32.5,15.3-59.3,28.7-61.3,28.7c-1.9,1.9-21,480.5-44,1062.5c-21.1,583.9-47.9,1135.3-59.3,1223.4c-32.6,260.4-111.1,382.9-300.6,463.3c-229.7,99.5-1617.7,463.3-1702,446.1c-44-7.7-68.9,0-114.9,38.3l-59.3,49.8l-235.5-19.1c-128.3-11.5-239.3-13.4-248.9-5.7c-7.7,7.7-82.3,191.5-166.6,407.8l-151.3,392.5l-13.4,239.3c-7.6,132.1-17.2,287.2-22.9,344.6l-11.5,105.3l-116.8,47.9l-116.8,47.9l-291,448c-160.8,247-310.2,490.1-335,541.8l-42.1,91.9l-116.8-3.8C5541,3281,5441.4,3277.2,5384,3273.3z M5877.9,1795.4c93.8-47.9,164.6-126.4,212.5-231.7c36.4-78.5,40.2-124.4,40.2-482.5V686.9l-137.9-11.5c-76.6-5.7-283.3-15.3-459.5-21.1l-321.6-11.5v423.1c0,463.3,5.7,495.8,114.9,620.3c61.3,68.9,135.9,116.8,229.7,147.4C5627.1,1856.6,5797.5,1835.6,5877.9,1795.4z M4451.6,1672.8c91.9-40.2,199.1-168.5,231.7-283.3c23-74.7,30.6-187.6,30.6-430.8V627.5l-80.4-9.6c-45.9-5.8-210.6-19.1-369.5-32.6c-157-11.5-294.8-23-306.3-23c-11.5-1.9-19.1,137.8-19.1,388.6c0,440.3,15.3,518.8,130.2,626C4191.2,1693.9,4321.4,1726.4,4451.6,1672.8z M3335.5,1502.4c36.4-24.9,86.2-86.1,113-139.8c47.9-90,49.8-109.1,55.5-478.6l5.8-382.9l-254.6-44c-139.8-24.9-279.5-49.8-308.2-55.5l-53.6-11.5l5.8,440.3c5.7,426.9,7.7,440.3,55.5,532.2c57.4,114.9,149.3,181.9,247,181.9C3243.6,1544.6,3299.1,1527.3,3335.5,1502.4z M2309.3,1217.2c118.7-93.8,164.6-281.4,164.6-672V302.1l-70.8-19.1c-168.5-44-386.7-97.6-396.3-97.6c-5.8,0-11.5,172.3-11.5,382.9c0,430.8,24.9,545.6,135.9,641.4C2202.1,1267,2242.3,1268.9,2309.3,1217.2z M1474.6,845.8c61.3-78.5,88.1-229.7,88.1-515l1.9-266.1l-128.3-44c-68.9-23-145.5-47.9-168.5-55.5l-44-13.4l11.5,340.8c5.8,233.6,19.1,373.3,38.3,434.6C1327.2,891.7,1403.8,937.7,1474.6,845.8z M837.1,348c30.6-63.2,38.3-116.8,38.3-312.1v-237.4l-112.9-45.9c-63.2-24.9-116.8-46-120.6-46c-15.3,0-3.8,407.8,15.3,507.3C699.2,441.8,766.2,491.6,837.1,348z M5856.9,91.5c40.2-19.2,99.6-65.1,134-101.5c114.9-118.7,120.6-155.1,120.6-685.4V-1174h-461.4h-459.5l5.7,493.9c5.7,465.2,7.6,495.9,47.9,572.4C5361,110.6,5642.4,202.5,5856.9,91.5z M7110.8,72.3c65.1-42.1,101.5-84.2,141.7-168.5l55.5-111v-488.2v-488.2h-382.9h-382.9v497.8V-188l49.8,95.7c82.3,153.2,180,218.3,335,220.2C7001.7,127.9,7041.9,114.4,7110.8,72.3z M4497.6,9.2c70.8-49.8,141.7-145.5,174.2-243.1c15.3-42.1,23-220.2,23-511.2v-448h-281.4c-157,0-329.3-5.7-382.9-11.5L3929-1218v472.9c0,381,5.7,486.3,28.7,541.8c76.6,183.8,220.2,283.3,381,266.1C4390.4,57,4461.2,32.1,4497.6,9.2z M3318.2-124.9c40.2-26.8,86.2-88.1,122.5-158.9l57.4-114.9l5.7-413.5l7.7-413.5l-151.3-11.5c-82.3-7.7-224-19.2-315.9-24.9l-168.5-13.4v423.1c0,379.1,3.8,434.6,38.3,528.4C2994.7-111.5,3167-25.3,3318.2-124.9z M8326.5-119.1c137.8-86.2,197.2-283.3,197.2-666.2c0-193.4-3.8-216.3-32.6-216.3c-67,0-474.8,59.3-515,76.6c-55.5,21.1-91.9,202.9-80.4,405.9c5.7,128.3,19.1,178,63.2,260.4C8048.9-92.3,8192.5-38.7,8326.5-119.1z M2339.9-381.4c88.1-101.5,105.3-189.5,105.3-582v-354.2l-210.6-23c-114.9-11.5-222.1-23-235.5-23c-21.1-1.9-24.9,74.7-19.2,396.3c5.7,384.8,7.7,400.1,57.4,507.3c38.3,82.3,67,116.8,112.9,135.9C2228.9-291.4,2271-302.9,2339.9-381.4z M9283.8-356.5c24.9-21.1,61.3-84.2,82.3-141.7c34.5-90,38.3-149.3,38.3-486.3v-384.8l-61.3,9.6c-34.5,5.7-122.5,17.2-197.2,23c-72.8,5.7-155.1,15.3-180,21.1l-45.9,9.6l11.5,348.4c11.5,365.7,24.9,446.1,95.7,551.4C9105.7-289.5,9193.8-272.3,9283.8-356.5z M1445.9-557.5c72.8-80.4,95.7-195.3,105.3-532.2l7.7-327.4l-101.5-13.4c-57.4-7.6-132.1-17.2-166.6-24.9l-65.1-11.5l7.7,371.4c7.7,384.8,21,461.4,99.5,539.9C1375-513.5,1407.6-513.5,1445.9-557.5z M816-817.9c42.1-90,72.8-331.2,65.1-536.1c-5.7-191.4,3.8-180-181.9-210.6l-82.3-11.5v214.4c1.9,367.6,53.6,608.8,130.2,608.8C772-752.8,796.9-777.7,816-817.9z M7001.7-1692.8c114.9-32.5,199.1-105.3,256.6-225.9c45.9-101.5,49.8-126.3,55.5-463.3l7.7-356.1l-178-11.5c-95.7-7.7-273.8-13.4-394.4-13.4h-220.2l7.7,379.1c5.7,359.9,7.6,382.9,53.6,471c70.8,135.9,168.5,208.7,325.5,239.3C6921.3-1673.7,6959.6-1681.3,7001.7-1692.8z M4465-1748.3c86.2-44,164.6-139.8,202.9-243.1c17.2-49.8,24.9-180,26.8-421.2V-2763h-382.9H3929v346.5c0,208.7,9.6,377.2,23,421.2c26.8,91.9,137.8,224,214.4,258.5C4252.5-1700.5,4378.9-1704.3,4465-1748.3z M5854.9-1756c111.1-51.7,202.9-153.2,235.5-258.5c11.5-44,21-212.5,21-411.6V-2763h-461.4h-459.5l5.7,359.9c5.7,394.4,17.2,436.5,135.9,559C5466.3-1706.2,5673-1671.8,5854.9-1756z M8200.2-1809.6c40.2-26.8,86.2-88.1,122.5-158.9c55.5-111,57.4-124.4,65.1-434.6l5.7-321.6h-141.7c-78.5,0-222.1-5.7-317.8-11.5l-176.1-13.4v306.3c0,348.4,23,463.3,118.7,572.4C7976.2-1757.9,8089.1-1736.9,8200.2-1809.6z M3341.2-1844.1c36.4-30.6,86.2-103.4,111-157c40.2-90,45.9-137.8,51.7-421.2l7.7-321.6h-319.7h-319.7l7.7,340.8c5.7,335,5.7,340.8,63.2,442.3c67,122.5,141.7,174.2,252.7,174.2C3258.9-1786.6,3291.4-1800,3341.2-1844.1z M9258.9-1865.1c28.7-21.1,70.8-76.6,93.8-118.7c36.4-70.8,42.1-114.9,47.9-390.6l7.7-312.1h-180h-178l-65.1,126.3c-61.3,122.5-63.2,130.2-49.8,279.5c17.2,204.8,53.6,319.7,126.3,394.4C9130.6-1815.3,9188-1809.6,9258.9-1865.1z M2318.9-1909.2c97.6-86.2,122.5-187.6,132.1-513.1l7.7-302.5h-65.1c-36.4,0-147.4,5.7-243.1,13.4l-178.1,11.5l7.7,289.1c5.7,266.1,9.6,296.7,57.4,400.1c38.3,82.3,67,116.8,114.9,135.9C2221.2-1844.1,2253.8-1851.7,2318.9-1909.2z M1434.4-1949.4c70.8-49.8,105.3-187.6,114.9-476.7l11.5-266.1l-74.7,11.5c-42.1,7.7-114.9,13.4-164.6,13.4h-91.9v225.9c0,248.9,32.5,404,101.5,478.6C1377-1913,1380.8-1913,1434.4-1949.4z M812.2-2075.7c38.3-74.7,72.7-283.4,72.7-442.3c0-124.4,7.7-120.6-170.4-97.6l-103.4,11.5l11.5,183.8c15.3,254.6,74.7,436.5,135.9,417.4C770.1-2006.8,795-2039.3,812.2-2075.7z"/></g></g>
</svg>